<svg width="81" height="89" viewBox="0 0 81 89" fill="none" xmlns="http://www.w3.org/2000/svg">
<path d="M78.5765 43.7281L42.1621 7.26904V8.85916C44.5787 27.469 59.7471 42.126 78.5765 43.7281Z" fill="white"/>
<path d="M66.4229 52.7596C65.8299 52.5324 65.2318 52.3139 64.6285 52.1073V43.1397C63.1778 42.4995 61.7701 41.7836 60.4071 40.992V50.4897C59.8141 50.2625 59.216 50.044 58.6127 49.8375V39.8924C57.1465 38.9424 55.7388 37.9013 54.3913 36.7741V48.5657C53.7966 48.4126 53.1985 48.2697 52.5969 48.1355V35.1857C52.2377 34.8484 51.8819 34.5059 51.5312 34.1549C50.4106 33.0328 49.3587 31.8592 48.3755 30.6356V47.3645C47.7808 47.2785 47.1827 47.2028 46.5811 47.1374V28.235C44.8915 25.8016 43.458 23.1962 42.2944 20.4427C42.248 20.3343 42.2033 20.2259 42.1586 20.1175V46.8259C41.5622 46.807 40.9658 46.7966 40.3642 46.7966C39.7626 46.7966 39.1662 46.807 38.5698 46.8259V20.114C38.5251 20.2224 38.4804 20.3308 38.434 20.4393C37.2429 23.2564 35.7716 25.9169 34.0322 28.3984V47.1477C33.4306 47.2148 32.8324 47.294 32.2377 47.38V30.7785C31.289 31.9504 30.2749 33.0776 29.1989 34.1549C28.8122 34.5421 28.4169 34.9224 28.0181 35.2941V48.1613C27.4165 48.2973 26.8184 48.4418 26.2237 48.5967V36.8722C24.8779 37.9925 23.4684 39.025 22.0023 39.9681V49.8771C21.399 50.087 20.8009 50.3056 20.2079 50.5344V41.0591C18.8449 41.8439 17.4372 42.5546 15.9865 43.1896V52.1917C15.3832 52.4016 14.7851 52.6202 14.1921 52.8491V43.9262C10.0532 45.5214 5.72702 46.4559 1.28394 46.7157L12.1656 57.6108C18.08 54.1982 24.8246 51.7219 32.1449 50.4897C44.1352 48.4711 55.756 50.1094 65.5068 54.5011C58.2122 52.0506 49.9568 51.314 41.4831 52.7406C32.3443 54.2791 24.2677 58.1116 17.9494 63.4034L40.3608 85.8422L63.0626 63.1125C57.3442 59.7912 50.4432 57.85 43.0129 57.85C36.0689 57.85 29.5874 59.5451 24.1027 62.4758C31.2855 57.6676 40.3298 54.8023 50.1545 54.8023C56.5295 54.8023 62.5762 56.0086 67.999 58.1701L79.4393 46.7157C74.955 46.4542 70.5875 45.5042 66.4143 43.8814V52.7578L66.4229 52.7596Z" fill="white"/>
<path d="M38.575 8.85919V7.54614L2.46304 43.7006C21.1515 41.9694 36.1704 27.3692 38.575 8.85747V8.85919Z" fill="white"/>
</svg>
